<svg xmlns="http://www.w3.org/2000/svg" viewBox="0 0 483 483">
  <path d="M219.43 126.206c24.09 10.762 52.33-.043 63.093-24.13 10.76-24.087-.045-52.33-24.132-63.09-24.08-10.76-52.33.042-63.09 24.132-10.76 24.084.05 52.33 24.13 63.088z"/>
  <circle cx="69.602" cy="215.493" r="10.5"/>
  <path d="M471.5 264.052v-26.06c0-5.52-4.478-10-10-10-4.1 0-7.618 2.472-9.162 6H311.69L305.13 193l64.306 25.83c7.51 3.026 16.303.165 20.496-7.04 4.603-7.908 1.922-18.05-5.986-22.654 0 0-91.975-51.807-101.04-55.81-16.785-7.41-52.368-2.41-73.702 10.68L162.8 172.733l-48.774-5.342c-4.22-.462-8.32.73-11.577 3.11l-8.83-2.75c-1.31-13.14-11.38-24.862-25.7-29.33-18.73-5.84-38.18 2.92-43.36 19.53s5.84 34.873 24.565 40.717c14.32 4.465 29.27.55 37.816-9.52l11.268 3.515c2.23 3.55 5.8 6.26 10.2 7.3l56.3 13.316c3.76.887 7.87.484 11.565-1.44l2.277-1.19 25.958-13.53 5.906 36.878H30.66c-1.544-3.53-5.063-6-9.162-6-5.522 0-10 4.48-10 10v26.06c-6.445.575-11.5 5.985-11.5 12.58 0 6.983 5.66 12.642 12.64 12.642H199.42l-18.39 15.29-2.12 1.757c-3.19 2.647-5.633 6.263-6.822 10.56l-29.38 106.148c-2.68 9.798 2.495 20.278 12.196 23.894 10.27 3.83 21.703-1.392 25.532-11.663l35.218-94.477 38.874-24.564-.622 24.033-.076 2.938c-.13 5.403 1.707 10.864 5.578 15.224l73.81 83.116c6.68 7.47 18.118 8.92 26.437 2.94 8.905-6.4 10.934-18.81 4.533-27.716l-58.09-80.813 6.896-46.67H470.36c6.98 0 12.64-5.655 12.64-12.64 0-6.594-5.055-12.004-11.5-12.58zm-440-22.06h180.2l3.52 22H31.5v-22zm420 22H315.943c-.03-2.42-.23-4.866-.622-7.327l-2.343-14.672H451.5v22z"/>
</svg>
